<?xml version="1.0" standalone="no"?>
<!DOCTYPE svg PUBLIC "-//W3C//DTD SVG 20010904//EN"
 "http://www.w3.org/TR/2001/REC-SVG-20010904/DTD/svg10.dtd">
<svg version="1.0" xmlns="http://www.w3.org/2000/svg"
 width="512.000000pt" height="512.000000pt" viewBox="0 0 512.000000 512.000000"
 preserveAspectRatio="xMidYMid meet">

<g transform="translate(0.000000,512.000000) scale(0.100000,-0.100000)"
fill="#000000" stroke="none">
<path d="M1414 3398 c-38 -18 -44 -50 -44 -238 l0 -179 -37 -6 c-94 -15 -178
-36 -247 -63 l-74 -29 -78 136 c-43 75 -86 149 -97 164 -26 38 -63 51 -99 36
-33 -14 -48 -37 -48 -74 0 -24 142 -285 177 -326 12 -14 11 -18 -9 -31 -67
-44 -181 -156 -232 -229 -13 -19 -20 -16 -167 69 -182 104 -182 104 -216 91
-35 -13 -52 -37 -53 -75 0 -41 20 -58 170 -144 69 -40 135 -78 146 -85 l22
-14 -39 -112 c-21 -62 -41 -143 -45 -181 l-7 -68 -191 0 c-180 0 -194 -1 -214
-20 -32 -30 -33 -82 -1 -115 18 -18 35 -20 214 -23 l195 -3 0 -33 c0 -47 43
-210 74 -279 14 -32 21 -55 17 -52 -11 6 -301 -160 -323 -187 -40 -45 -2 -128
57 -128 15 0 94 39 182 90 85 49 158 90 162 90 4 0 24 -22 44 -48 38 -51 114
-125 181 -178 l39 -31 -91 -159 c-56 -97 -92 -170 -92 -187 0 -33 40 -77 69
-77 48 0 69 23 161 182 74 127 96 158 109 152 66 -28 196 -66 262 -76 l79 -12
0 -189 c0 -186 0 -188 25 -212 34 -35 86 -34 114 1 20 25 21 40 21 213 l0 187
78 11 c42 6 118 26 167 43 50 17 96 32 104 33 8 1 48 -57 97 -143 46 -80 95
-155 109 -167 32 -29 65 -29 99 -2 46 36 37 69 -65 245 l-91 157 33 26 c58 43
166 151 195 192 15 21 31 39 36 39 5 0 75 -39 156 -86 166 -97 194 -106 235
-74 21 17 27 30 27 60 0 48 -9 55 -203 166 -105 60 -136 82 -130 94 27 59 73
216 80 270 l8 65 191 5 c208 5 224 10 238 66 7 28 -16 79 -39 88 -9 3 -99 6
-201 6 -182 0 -184 0 -188 23 -28 145 -42 203 -66 265 l-28 72 91 54 c51 29
124 72 163 94 73 42 84 55 84 98 0 38 -16 61 -50 73 -39 13 -35 14 -219 -92
-127 -74 -155 -87 -162 -74 -23 41 -116 140 -179 192 -38 31 -68 60 -66 64 1
3 42 74 89 157 104 180 111 224 38 254 -55 22 -76 1 -179 -176 l-92 -162 -62
25 c-59 24 -181 56 -260 68 l-38 6 0 184 c0 101 -3 191 -6 200 -7 17 -55 45
-76 44 -7 0 -23 -5 -34 -11z m271 -863 c47 -46 21 -136 -42 -148 -40 -8 -91
17 -104 50 -14 38 -3 89 24 108 34 24 94 19 122 -10z m-484 -168 c54 -36 79
-82 79 -144 0 -110 -65 -178 -169 -178 -184 0 -244 228 -86 326 44 28 132 26
176 -4z m708 -426 c51 -26 114 -100 129 -149 53 -178 -65 -342 -246 -342 -104
0 -178 42 -225 128 -59 108 -43 227 42 312 60 60 120 82 204 75 31 -3 75 -14
96 -24z m-748 -244 c23 -17 39 -52 39 -82 0 -38 -50 -85 -90 -85 -76 0 -119
102 -65 155 27 28 88 34 116 12z"/>
<path d="M3951 2184 c-19 -24 -21 -40 -21 -169 l0 -142 -102 -26 c-57 -15
-109 -28 -116 -30 -8 -1 -43 49 -84 120 -75 129 -99 151 -152 137 -33 -8 -56
-40 -56 -76 0 -17 29 -79 69 -148 l68 -120 -84 -84 -84 -84 -119 69 c-127 74
-166 83 -200 49 -31 -31 -36 -68 -13 -98 11 -15 71 -57 134 -94 65 -38 113
-72 112 -80 -2 -7 -15 -59 -30 -115 l-26 -103 -142 0 c-129 0 -145 -2 -169
-21 -35 -27 -36 -86 -3 -117 22 -21 33 -22 168 -22 l146 0 26 -102 c15 -57 28
-109 30 -117 1 -9 -39 -38 -108 -78 -130 -74 -159 -103 -151 -147 3 -17 16
-39 27 -48 38 -32 77 -22 202 51 l118 68 84 -84 84 -84 -70 -119 c-44 -77 -69
-130 -69 -150 0 -36 38 -80 69 -80 48 0 71 24 141 146 40 68 72 124 73 124 1
0 25 -9 52 -19 28 -10 78 -25 113 -31 l62 -13 0 -141 c0 -114 3 -146 16 -164
22 -32 58 -44 91 -31 48 18 52 33 53 190 l0 146 60 12 c33 7 84 20 115 31 l55
19 56 -97 c31 -53 64 -109 72 -124 28 -49 83 -61 126 -27 44 35 36 76 -44 213
l-69 119 42 34 c23 20 61 57 83 84 l42 48 118 -69 c137 -80 178 -88 213 -44
34 43 22 98 -27 126 -15 8 -71 41 -124 72 l-97 56 19 55 c11 31 24 82 31 115
l12 60 146 0 c157 1 172 5 190 53 13 33 1 69 -31 91 -18 13 -50 16 -164 16
l-141 0 -13 63 c-6 34 -21 85 -31 112 -10 28 -19 51 -19 52 0 1 56 33 124 73
122 70 146 93 146 141 0 31 -44 69 -80 69 -20 0 -72 -24 -149 -69 l-119 -69
-84 83 -85 84 68 118 c73 125 83 164 52 202 -10 11 -32 24 -49 27 -44 8 -73
-21 -147 -151 -40 -69 -69 -109 -78 -108 -8 2 -60 15 -116 30 l-103 26 0 147
c0 140 -1 147 -23 168 -34 32 -89 30 -116 -4z m191 -655 c55 -29 53 -125 -3
-154 -40 -21 -63 -19 -98 11 -64 53 -27 153 57 154 13 0 32 -5 44 -11z m-423
-89 c25 -13 45 -64 37 -95 -10 -39 -45 -65 -87 -65 -50 0 -79 26 -86 77 -5 35
-2 45 20 67 28 28 81 35 116 16z m692 -439 c79 -79 -26 -200 -114 -131 -34 27
-43 70 -22 110 29 56 91 65 136 21z m-596 -86 c35 -34 34 -93 0 -125 -56 -53
-145 -15 -145 62 0 52 35 88 85 88 25 0 44 -8 60 -25z"/>
</g>
</svg>
