<?xml version="1.0" standalone="no"?>
<!DOCTYPE svg PUBLIC "-//W3C//DTD SVG 20010904//EN"
 "http://www.w3.org/TR/2001/REC-SVG-20010904/DTD/svg10.dtd">
<svg version="1.0" xmlns="http://www.w3.org/2000/svg"
 width="512.000000pt" height="512.000000pt" viewBox="0 0 512.000000 512.000000"
 preserveAspectRatio="xMidYMid meet">
<metadata>
Created by potrace 1.16, written by Peter Selinger 2001-2019
</metadata>
<g transform="translate(0.000000,512.000000) scale(0.100000,-0.100000)"
fill="#000000" stroke="none">
<path d="M1415 3411 c-46 -20 -50 -34 -55 -234 -6 -210 -2 -199 -72 -200 -16
0 -28 -3 -28 -6 0 -4 -15 -8 -32 -9 -18 -2 -37 -7 -42 -12 -6 -6 -25 -10 -43
-10 -18 0 -33 -5 -33 -11 0 -6 -7 -9 -15 -5 -8 3 -15 2 -15 -2 0 -4 -10 -8
-22 -9 -11 -1 -24 -7 -28 -14 -5 -7 -31 29 -65 87 -143 247 -133 233 -171 243
-43 12 -76 1 -98 -31 -30 -43 -20 -76 73 -237 l88 -153 -26 -27 c-14 -14 -28
-26 -30 -24 -7 4 -91 -81 -97 -99 -3 -11 -17 -23 -30 -28 -15 -6 -24 -18 -24
-30 0 -12 -4 -18 -10 -15 -5 3 -10 -1 -10 -9 0 -8 -4 -17 -8 -20 -5 -3 -78 35
-163 84 -147 86 -168 95 -214 91 -32 -3 -65 -47 -65 -87 0 -49 28 -73 197
-169 l140 -79 -11 -36 c-5 -19 -15 -38 -20 -42 -6 -4 -7 -10 -4 -13 4 -4 2
-19 -4 -34 -11 -29 -19 -60 -20 -78 -1 -7 -4 -13 -8 -13 -7 0 -8 -3 -13 -65
-3 -22 -5 -46 -6 -52 -1 -10 -47 -13 -191 -13 -189 0 -191 0 -215 -25 -38 -37
-35 -95 6 -130 l32 -26 186 3 186 3 1 -35 c1 -43 8 -79 19 -104 4 -10 8 -31 9
-47 1 -16 4 -29 7 -29 4 0 10 -7 13 -16 4 -10 2 -13 -7 -7 -6 4 -4 -5 6 -20 9
-14 17 -32 17 -38 0 -7 8 -21 17 -32 10 -11 12 -17 6 -13 -7 4 -13 3 -13 -1 0
-5 -59 -43 -131 -84 -172 -98 -199 -120 -199 -165 0 -45 45 -94 87 -94 17 0
88 35 183 90 l155 90 23 -28 c12 -15 27 -26 33 -24 6 1 8 -2 4 -7 -3 -6 6 -18
20 -27 14 -9 24 -19 21 -21 -7 -8 27 -43 42 -43 7 0 10 -4 7 -10 -3 -5 -2 -10
3 -10 4 0 22 -14 40 -31 17 -17 39 -32 49 -34 10 -2 20 -4 22 -4 2 -1 -3 -9
-11 -18 -8 -10 -52 -82 -96 -160 -84 -145 -97 -188 -69 -224 30 -39 87 -50
124 -24 12 8 59 81 105 161 75 133 113 177 128 154 3 -4 25 -13 50 -20 25 -7
50 -16 57 -22 6 -5 27 -10 47 -11 20 -1 36 -4 36 -7 0 -4 12 -7 28 -8 15 -1
41 -3 57 -5 l30 -2 6 -195 c3 -107 6 -196 7 -197 44 -48 102 -58 143 -24 23
19 24 24 29 218 l5 198 25 1 c14 1 27 2 30 4 3 1 19 3 35 4 17 1 41 8 54 15
18 10 22 10 16 0 -6 -8 -4 -10 6 -3 8 4 22 10 33 11 10 2 35 11 55 21 20 9 38
17 41 18 3 0 13 4 23 9 10 4 19 6 21 4 2 -2 43 -73 91 -157 89 -155 111 -182
153 -182 30 0 78 25 86 45 17 44 3 82 -80 226 -47 82 -84 155 -82 164 2 9 6
15 10 13 3 -2 16 9 28 25 12 15 25 25 30 22 5 -3 20 11 35 32 14 21 29 36 33
33 4 -3 11 5 17 17 5 13 15 23 21 23 6 0 21 20 33 43 l23 44 163 -94 c104 -59
174 -93 193 -93 67 0 109 97 63 146 -10 12 -87 60 -171 109 -109 63 -149 90
-141 98 6 6 11 21 11 34 0 13 4 23 9 23 5 0 7 8 4 18 -2 10 2 24 11 31 8 7 12
19 9 27 -3 8 0 20 6 28 13 15 19 50 30 159 1 4 82 7 181 7 112 0 188 4 204 11
31 15 60 72 50 102 -3 12 -16 32 -27 45 -20 21 -26 22 -212 22 l-192 0 -7 31
c-3 17 -3 35 0 40 3 6 0 16 -6 24 -7 8 -10 22 -6 30 3 8 1 15 -5 15 -6 0 -8 9
-4 20 4 12 2 20 -5 20 -7 0 -10 6 -7 14 3 7 0 19 -6 25 -6 6 -8 11 -4 11 9 0
-24 83 -36 91 -17 12 25 42 166 123 76 44 145 88 153 100 21 31 17 81 -9 111
-40 47 -76 38 -245 -59 -82 -47 -152 -86 -155 -86 -11 0 -67 52 -67 62 0 15
-54 78 -66 78 -6 0 -25 16 -41 35 -17 19 -33 32 -36 28 -4 -3 -7 -1 -7 6 0 7
-5 9 -12 5 -6 -4 -8 -3 -4 4 3 6 0 15 -9 19 -12 7 -2 30 56 127 93 158 109
190 109 223 0 61 -57 102 -114 83 -27 -9 -46 -34 -122 -162 -49 -84 -91 -158
-92 -166 -3 -10 -7 -10 -18 -1 -8 6 -17 9 -20 6 -4 -3 -13 1 -21 9 -9 8 -22
13 -31 9 -8 -3 -24 3 -34 12 -11 10 -22 17 -24 16 -2 -2 -5 -3 -6 -2 -4 1 -26
6 -63 15 -16 4 -47 7 -67 8 -21 0 -38 4 -38 9 0 5 -7 7 -15 3 -13 -5 -15 20
-15 184 0 182 -1 190 -22 214 -25 28 -72 40 -103 27z m270 -876 c47 -46 21
-136 -42 -148 -40 -8 -91 17 -104 50 -14 38 -3 89 24 108 34 24 94 19 122 -10z
m-484 -168 c54 -36 79 -82 79 -144 0 -110 -65 -178 -169 -178 -184 0 -244 228
-86 326 44 28 132 26 176 -4z m708 -426 c51 -26 114 -100 129 -149 53 -178
-65 -342 -246 -342 -104 0 -178 42 -225 128 -59 108 -43 227 42 312 60 60 120
82 204 75 31 -3 75 -14 96 -24z m-748 -244 c23 -17 39 -52 39 -82 0 -38 -50
-85 -90 -85 -76 0 -119 102 -65 155 27 28 88 34 116 12z"/>
<path d="M3949 2201 c-23 -18 -24 -25 -27 -170 l-3 -151 -27 -5 c-35 -7 -153
-41 -172 -49 -11 -4 -32 24 -82 113 -38 65 -75 125 -84 132 -9 7 -34 14 -56
14 -31 0 -45 -7 -64 -28 -38 -45 -31 -78 41 -202 36 -62 65 -115 65 -118 0 -8
-149 -157 -157 -157 -3 0 -56 29 -118 65 -121 70 -155 78 -198 45 -32 -26 -41
-62 -23 -103 11 -27 36 -46 135 -103 90 -51 119 -73 115 -84 -8 -20 -42 -137
-49 -172 l-5 -27 -151 -3 c-145 -3 -152 -4 -170 -27 -28 -34 -25 -96 6 -126
23 -24 28 -25 169 -25 l146 0 6 -27 c10 -45 41 -157 48 -173 5 -12 -23 -32
-115 -85 -129 -75 -156 -104 -144 -154 4 -14 16 -36 27 -48 37 -40 80 -31 206
42 61 36 114 65 117 65 6 0 155 -151 155 -158 0 -3 -29 -56 -65 -117 -72 -125
-79 -158 -41 -202 19 -22 33 -28 64 -28 24 0 48 7 59 17 10 9 47 68 83 131
l64 114 52 -17 c28 -10 77 -23 108 -30 l56 -11 0 -145 c0 -141 1 -146 25 -169
34 -35 96 -35 130 0 24 23 25 29 25 168 0 154 1 157 50 157 11 0 53 11 93 24
l74 23 67 -118 c37 -64 73 -122 81 -129 7 -6 28 -13 47 -16 27 -5 41 -1 66 21
50 42 45 78 -33 212 -36 62 -65 114 -65 116 0 6 151 157 157 157 2 0 54 -29
116 -65 134 -78 170 -83 212 -33 22 25 26 39 21 66 -3 19 -10 40 -16 47 -7 8
-65 44 -130 81 l-119 68 13 30 c11 27 24 78 42 164 4 22 7 22 150 22 141 0
146 1 169 25 31 30 34 92 6 126 -18 23 -25 24 -170 27 l-150 3 -12 57 c-6 31
-20 79 -30 106 -10 28 -18 50 -16 51 172 99 237 138 246 149 7 8 15 30 18 50
5 30 1 40 -25 66 -46 46 -76 41 -207 -35 -61 -36 -114 -65 -117 -65 -6 0 -158
148 -158 154 0 2 29 55 65 117 70 123 78 159 45 202 -26 32 -62 41 -102 23
-27 -11 -47 -37 -102 -133 l-68 -120 -82 23 c-44 13 -93 26 -108 29 l-28 5 0
146 c0 141 -1 146 -25 169 -30 31 -92 34 -126 6z m193 -672 c55 -29 53 -125
-3 -154 -40 -21 -63 -19 -98 11 -64 53 -27 153 57 154 13 0 32 -5 44 -11z
m-423 -89 c25 -13 45 -64 37 -95 -10 -39 -45 -65 -87 -65 -50 0 -79 26 -86 77
-5 35 -2 45 20 67 28 28 81 35 116 16z m692 -439 c79 -79 -26 -200 -114 -131
-34 27 -43 70 -22 110 29 56 91 65 136 21z m-596 -86 c35 -34 34 -93 0 -125
-56 -53 -145 -15 -145 62 0 52 35 88 85 88 25 0 44 -8 60 -25z"/>
</g>
</svg>
